<svg width="110" height="110" viewBox="0 0 110 110" fill="none" xmlns="http://www.w3.org/2000/svg">
    <path
        d="M92.7196 38.9895L87.1236 47.4061C89.8223 52.7885 91.1435 58.7564 90.9688 64.7749C90.7941 70.7935 89.1291 76.6746 86.1228 81.8915H23.0663C19.159 75.1132 17.54 67.2562 18.4492 59.4854C19.3584 51.7146 22.7475 44.4435 28.1139 38.7503C33.4804 33.057 40.5386 29.2446 48.2422 27.8781C55.9458 26.5117 63.8847 27.664 70.8818 31.1643L79.2985 25.5684C70.7294 20.0735 60.565 17.6113 50.4312 18.5754C40.2974 19.5396 30.7798 23.8746 23.4007 30.8868C16.0216 37.8991 11.2074 47.1835 9.72811 57.255C8.24886 67.3264 10.19 77.6031 15.2411 86.441C16.0351 87.8162 17.1751 88.9597 18.5479 89.7579C19.9207 90.556 21.4784 90.981 23.0663 90.9905H86.0773C87.6806 90.9969 89.2572 90.5795 90.6473 89.7806C92.0374 88.9816 93.1918 87.8296 93.9934 86.441C98.1853 79.1796 100.289 70.9011 100.072 62.5194C99.8554 54.1377 97.3266 45.979 92.7651 38.944L92.7196 38.9895Z"
        fill="black" />
    <path
        d="M48.1795 70.1083C49.0246 70.9543 50.0281 71.6254 51.1327 72.0833C52.2373 72.5412 53.4213 72.7769 54.6171 72.7769C55.8128 72.7769 56.9969 72.5412 58.1015 72.0833C59.2061 71.6254 60.2096 70.9543 61.0547 70.1083L86.805 31.4828L48.1795 57.2331C47.3335 58.0782 46.6624 59.0817 46.2045 60.1863C45.7466 61.2909 45.5109 62.4749 45.5109 63.6707C45.5109 64.8664 45.7466 66.0505 46.2045 67.1551C46.6624 68.2597 47.3335 69.2632 48.1795 70.1083Z"
        fill="black" />
</svg>