<svg width="110" height="110" viewBox="0 0 110 110" fill="none" xmlns="http://www.w3.org/2000/svg">
    <path
        d="M68.2429 59.1438V22.7476C68.2429 15.1954 62.1465 9.09906 54.5943 9.09906C47.0421 9.09906 40.9457 15.1954 40.9457 22.7476V59.1438C35.4408 63.2839 31.8467 69.9262 31.8467 77.3419C31.8467 89.8986 42.0376 100.09 54.5943 100.09C67.151 100.09 77.3419 89.8986 77.3419 77.3419C77.3419 69.9262 73.7478 63.2839 68.2429 59.1438ZM50.0448 22.7476C50.0448 20.2454 52.0921 18.1981 54.5943 18.1981C57.0965 18.1981 59.1438 20.2454 59.1438 22.7476H54.5943V27.2972H59.1438V36.3962H54.5943V40.9457H59.1438V50.0448H50.0448V22.7476Z"
        fill="black" />
</svg>